<?xml version="1.0" standalone="no"?>
<!DOCTYPE svg PUBLIC "-//W3C//DTD SVG 1.1//EN" "http://www.w3.org/Graphics/SVG/1.1/DTD/svg11.dtd" >
<svg xmlns="http://www.w3.org/2000/svg">
<metadata></metadata>
<defs>
<font id="pf_din_text_cond_proregular" horiz-adv-x="901" >
<font-face units-per-em="2048" ascent="1536" descent="-512" />
<missing-glyph horiz-adv-x="430" />
<glyph horiz-adv-x="2048" />
<glyph horiz-adv-x="2048" />
<glyph unicode="&#xd;" horiz-adv-x="2048" />
<glyph unicode=" "  horiz-adv-x="430" />
<glyph unicode="&#x09;" horiz-adv-x="430" />
<glyph unicode="&#xa0;" horiz-adv-x="430" />
<glyph unicode="!" horiz-adv-x="481" d="M156 0v182h174v-182h-174zM160 1425h162l-17 -1063h-129z" />
<glyph unicode="&#x22;" horiz-adv-x="573" d="M102 1020v405h127v-405h-127zM344 1020v405h127v-405h-127z" />
<glyph unicode="#" d="M23 451v112h176l49 309h-158v113h176l72 442h117l-72 -442h205l71 442h117l-74 -442h166v-113h-184l-49 -309h166v-112h-185l-71 -451h-117l72 451h-205l-72 -451h-117l74 451h-157zM313 563h205l51 309h-204z" />
<glyph unicode="$" d="M55 231l135 84q29 -63 82.5 -111t137.5 -59v506q-168 63 -249 150.5t-81 236.5q0 160 86 265.5t244 119.5v166h90v-166q129 -10 210 -73.5t113 -139.5l-137 -90q-27 59 -73 97t-113 49v-469q96 -23 160.5 -60t102.5 -88t54.5 -116.5t16.5 -145.5q0 -174 -84 -279.5 t-250 -117.5v-205h-90v205q-131 8 -221.5 76.5t-133.5 164.5zM250 1036q0 -78 41 -125t119 -82v439q-82 -14 -121 -78t-39 -154zM500 147q94 14 130 79t36 159q0 51 -10.5 89t-32 64.5t-52 46t-71.5 36.5v-474z" />
<glyph unicode="%" horiz-adv-x="1310" d="M80 782v430q0 100 66.5 160t164.5 60q100 0 166 -59.5t66 -160.5v-430q0 -102 -67.5 -160.5t-164.5 -58.5q-96 0 -163.5 58.5t-67.5 160.5zM209 782q0 -47 27.5 -74.5t74.5 -27.5t75 27.5t28 74.5v430q0 43 -28 72t-75 29t-74.5 -29t-27.5 -72v-430zM211 -35l756 1497 h116l-757 -1497h-115zM770 203v446q0 49 18.5 89t51 66.5t73.5 41t88 14.5q45 0 87 -14.5t75 -41t51.5 -66.5t18.5 -89v-446q0 -51 -18.5 -90t-51.5 -66t-74.5 -41t-87.5 -14q-47 0 -88 14t-73.5 41t-51 66t-18.5 90zM899 203q0 -47 27.5 -70.5t74.5 -23.5t75 23.5t28 70.5 v446q0 43 -27.5 67.5t-75.5 24.5q-47 0 -74.5 -24.5t-27.5 -67.5v-446z" />
<glyph unicode="&#x26;" horiz-adv-x="1122" d="M113 344q0 131 62.5 231.5t186.5 196.5q-25 41 -51 81t-46.5 83t-34 88t-13.5 96q0 68 21.5 126.5t62.5 101.5t101.5 67.5t138.5 24.5q94 0 169.5 -32t131.5 -108l-119 -98q-47 51 -87 68.5t-99 17.5q-82 0 -120 -51t-38 -115q0 -37 21.5 -90t56.5 -114.5t79 -129 t91 -134t92 -131t82 -117.5q29 57 42 112t23 115l154 -12q-12 -88 -41 -181.5t-78 -177.5q43 -66 89 -132.5t91 -129.5h-194l-94 133q-74 -78 -158 -111.5t-176 -33.5q-82 0 -146.5 27.5t-108.5 74.5t-67.5 112.5t-23.5 141.5zM274 354q0 -90 53.5 -152.5t153.5 -62.5 q66 0 128.5 36t99.5 81q-66 98 -131.5 196.5t-133.5 196.5q-82 -66 -126 -137.5t-44 -157.5z" />
<glyph unicode="'" horiz-adv-x="423" d="M145 1020v405h127v-405h-127z" />
<glyph unicode="(" horiz-adv-x="512" d="M88 625q0 131 25.5 250.5t70.5 227t103.5 203t124.5 177.5l86 -47q-55 -84 -100.5 -181.5t-77 -202t-49 -211t-17.5 -208.5q0 -223 67.5 -435t174.5 -378l-78 -56q-66 82 -125.5 178.5t-105.5 205t-72.5 228.5t-26.5 249z" />
<glyph unicode=")" horiz-adv-x="512" d="M55 1434q23 12 43.5 24t42.5 23q66 -82 124.5 -177.5t103.5 -203t70.5 -227t25.5 -250.5q0 -129 -26.5 -248t-73 -227.5t-105.5 -205t-125 -178.5l-78 56q53 82 98.5 177t77 199.5t49 215t17.5 221.5q0 102 -17.5 208.5t-49 210t-76.5 201t-101 181.5z" />
<glyph unicode="*" horiz-adv-x="729" d="M53 1151q2 8 7.5 25.5t11.5 37t11 37t9 27.5l219 -92q0 14 -3 49t-6 73t-6 71.5t-3 50.5h131l-21 -244q14 6 45 18.5t65 26.5t64.5 27.5t45.5 19.5q2 -10 8 -27.5t12 -37t12.5 -37t8.5 -25.5l-230 -59l158 -187q-8 -6 -22.5 -17t-32 -22.5t-31.5 -23t-23 -17.5l-125 209 q-8 -12 -26.5 -41.5t-38 -62.5t-36.5 -62.5t-26 -44.5q-8 6 -23 17.5t-31.5 24t-32 22.5t-21.5 16l158 189q-14 4 -47 12t-68 17t-66.5 17.5t-46.5 12.5z" />
<glyph unicode="+" d="M39 539v127h350v362h125v-362h348v-127h-348v-365h-125v365h-350z" />
<glyph unicode="," horiz-adv-x="456" d="M117 -238l57 230h-51v213h194v-209l-104 -234h-96z" />
<glyph unicode="-" horiz-adv-x="755" d="M104 455v145h560v-145h-560z" />
<glyph unicode="." horiz-adv-x="446" d="M125 0v207h194v-207h-194z" />
<glyph unicode="/" horiz-adv-x="587" d="M4 -86l449 1571h129l-449 -1571h-129z" />
<glyph unicode="0" d="M109 326v772q0 82 27.5 145.5t75.5 106.5t109.5 65.5t129.5 22.5t130 -22.5t109 -65.5t76 -106.5t29 -145.5v-772q0 -82 -29 -145.5t-76 -106.5t-109.5 -64.5t-129.5 -21.5q-68 0 -129.5 21.5t-109.5 64.5t-75.5 106.5t-27.5 145.5zM272 326q0 -86 49.5 -132.5 t129.5 -46.5t129 46.5t49 132.5v772q0 86 -49.5 133t-128.5 47q-80 0 -129.5 -47t-49.5 -133v-772z" />
<glyph unicode="1" d="M231 1102l2 176l193 147h168v-1425h-166v1251z" />
<glyph unicode="2" d="M96 0v154l461 720q35 53 48 115t13 107q0 35 -8 67.5t-28.5 59t-53.5 42t-82 15.5q-82 -2 -128 -62.5t-52 -170.5l-168 26q12 166 104.5 264.5t248.5 98.5q162 0 254 -88t92 -250q0 -74 -24.5 -153t-72.5 -150l-407 -637h487v-158h-684z" />
<glyph unicode="3" d="M100 299l166 33q12 -84 49 -136.5t127 -52.5q102 0 146.5 75t44.5 185q0 266 -195 267h-84v143h76q102 0 148.5 57.5t46.5 167.5q0 45 -8.5 89t-29 78t-55 54.5t-86.5 20.5q-47 0 -77.5 -15.5t-50 -42t-28.5 -61.5t-16 -74l-163 27q8 68 32.5 127t66.5 103.5t99.5 69 t134.5 24.5q104 0 171 -32t106 -85t54.5 -125t15.5 -154q0 -41 -6.5 -85t-24 -85t-48 -74.5t-79.5 -52.5q55 -12 88 -41.5t50 -72.5t22.5 -97.5t5.5 -115.5q0 -92 -18.5 -171t-61.5 -136.5t-112.5 -90t-172.5 -32.5q-63 0 -120.5 19.5t-102.5 58t-75 97t-36 136.5z" />
<glyph unicode="4" d="M53 217v160l396 1048h172l-398 -1052h350v407h164v-407h109v-156h-109v-217h-164v217h-520z" />
<glyph unicode="5" d="M90 305l166 27q10 -94 51 -144.5t133 -50.5q68 0 106 33t56.5 84t21.5 114.5t3 125.5q0 53 -4.5 105t-21.5 94t-52 68.5t-96 26.5q-57 0 -98.5 -27.5t-67.5 -74.5h-154v739h647v-153h-497l6 -414q49 47 102.5 62.5t108.5 15.5q98 0 156.5 -37t89 -97.5t39 -138 t8.5 -159.5q0 -125 -15.5 -221.5t-54.5 -162t-108.5 -99t-176.5 -33.5q-307 0 -348 317z" />
<glyph unicode="6" d="M106 395q0 119 20.5 210t61.5 181q33 74 78 172.5t88 193.5t78 170t47 103h176l-282 -624l6 -2q23 14 56.5 21t64.5 7q82 0 138 -34.5t92 -91t51.5 -127t15.5 -140.5q0 -98 -19.5 -180t-61.5 -141.5t-109.5 -92t-164.5 -32.5q-178 0 -257 106.5t-79 300.5zM268 399 q0 -57 7.5 -104t28 -81t55 -53.5t87.5 -19.5q88 0 135.5 62.5t47.5 204.5q0 51 -7.5 100t-25.5 88t-53 61.5t-90 22.5q-61 0 -98.5 -26.5t-55.5 -68.5t-24.5 -91.5t-6.5 -94.5z" />
<glyph unicode="7" d="M104 1077v348h693v-153l-430 -1272h-172l428 1270h-365v-193h-154z" />
<glyph unicode="8" d="M92 397q0 268 158 344q-45 27 -74 57.5t-44 67.5t-20.5 83t-5.5 102q0 100 28 172.5t76 121t110.5 71t130.5 22.5q72 0 134 -22.5t109 -70t74 -121t27 -173.5q0 -113 -32 -185.5t-104 -124.5q88 -41 119 -128t31 -216q0 -115 -30.5 -192.5t-82 -125.5t-115 -69.5 t-130.5 -21.5q-72 0 -136.5 21.5t-113.5 69.5t-79 126t-30 192zM258 410q0 -76 15.5 -127.5t41 -83t60.5 -45t76 -13.5q100 0 144 65.5t44 207.5q0 141 -48 201.5t-140 60.5q-86 0 -139.5 -60.5t-53.5 -205.5zM272 1040q0 -231 179 -231q88 0 133 57.5t45 184.5 q0 111 -42 170t-136 59t-136.5 -60.5t-42.5 -179.5z" />
<glyph unicode="9" d="M102 991q0 98 20.5 180t63.5 141.5t112 92.5t165 33q178 0 256 -106.5t78 -301.5q2 -119 -21.5 -210t-64.5 -181q-6 -12 -30 -63.5t-55.5 -121t-66.5 -147.5t-65.5 -144.5t-51 -112.5t-22.5 -50h-176l282 625l-6 2q-23 -14 -55.5 -20.5t-63.5 -6.5q-82 0 -139 35t-92 91 t-51.5 126t-16.5 139zM270 1022q0 -53 7.5 -103.5t29 -89t58 -61.5t98.5 -23q51 0 84 23t51 59.5t25.5 87t7.5 105.5q0 57 -7.5 105.5t-26.5 83t-54 55t-88 20.5q-88 0 -136.5 -60.5t-48.5 -201.5z" />
<glyph unicode=":" horiz-adv-x="442" d="M119 0v207h194v-207h-194zM119 598v209h194v-209h-194z" />
<glyph unicode=";" horiz-adv-x="442" d="M115 -238l57 230h-49v213h194v-209l-104 -234h-98zM123 598v209h194v-209h-194z" />
<glyph unicode="&#x3c;" d="M55 545v117l783 395v-139l-637 -314l637 -313v-139z" />
<glyph unicode="=" d="M39 360v134h823v-134h-823zM39 715v133h823v-133h-823z" />
<glyph unicode="&#x3e;" d="M57 152v139l637 313l-637 314v139l783 -395v-117z" />
<glyph unicode="?" horiz-adv-x="888" d="M78 1073q12 92 47 161t86 114t115.5 66.5t136.5 21.5q178 0 270 -98.5t92 -262.5q0 -49 -7 -88t-20.5 -72.5t-33 -64.5t-43.5 -68q-23 -33 -51.5 -66.5t-54 -70.5t-43 -76t-17.5 -77v-123h-170v96q0 74 17.5 131t58.5 111q76 102 129 173.5t57 145.5q0 43 -6 87t-26.5 80 t-59.5 58.5t-102 22.5q-47 0 -85 -19.5t-63.5 -51.5t-40 -72.5t-16.5 -81.5zM381 0v182h172v-182h-172z" />
<glyph unicode="@" horiz-adv-x="1617" d="M109 688q0 164 51 302t145 238.5t228.5 157t300.5 56.5q152 0 275.5 -49.5t210.5 -136.5t135 -207.5t48 -262.5q0 -141 -29.5 -237t-78.5 -155.5t-113.5 -85t-136.5 -25.5q-18 0 -47 8t-57.5 24.5t-52 41t-32.5 57.5l-6 -2q-25 -45 -86 -76t-135 -31q-111 0 -171 64.5 t-60 169.5q0 45 13 88t42 76.5t74 55t108 21.5h187v99q0 53 -36 83.5t-108 30.5q-47 0 -85 -22.5t-56 -57.5l-111 56q35 66 99.5 105.5t150.5 39.5q61 0 111.5 -11t87.5 -39t57.5 -73t20.5 -112v-344q0 -61 30.5 -94t71.5 -33t79 14t66.5 56t46 116t17.5 192 q0 127 -42 226.5t-113.5 167t-167 103.5t-201.5 36q-141 0 -252 -49t-187.5 -134t-116.5 -200t-40 -248q0 -145 41 -265t117.5 -205t189.5 -131t254 -46q55 0 103 4t94.5 14.5t92.5 27.5t95 44l47 -119q-96 -41 -201.5 -66.5t-220.5 -25.5q-168 0 -305 51.5t-235.5 149.5 t-152.5 240.5t-54 326.5zM623 545q0 -49 34.5 -83t108.5 -34q156 0 156 137v105h-154q-66 0 -105.5 -28.5t-39.5 -96.5z" />
<glyph unicode="A" horiz-adv-x="1017" d="M18 0l414 1425h154l415 -1425h-176l-90 324h-454l-88 -324h-175zM319 477h377l-104 369l-80 315h-8l-80 -313z" />
<glyph unicode="B" horiz-adv-x="1036" d="M133 0v1425h410q197 0 292 -101t95 -273q0 -98 -37 -174t-145 -129v-7q55 -14 94 -46.5t63.5 -77t35.5 -98.5t11 -111q0 -201 -103.5 -304.5t-279.5 -103.5h-436zM303 166h248q68 0 113 20.5t71.5 55t37.5 81t11 99.5q0 106 -54 175t-183 69h-244v-500zM303 813h223 q123 0 179.5 63.5t56.5 167.5q0 102 -56.5 164t-179.5 62h-223v-457z" />
<glyph unicode="C" horiz-adv-x="960" d="M102 414v598q0 90 28 167.5t81 134t131 89.5t176 33q145 0 250.5 -72t144.5 -201l-161 -63q-20 78 -79 125t-155 47q-59 0 -105 -21.5t-77 -56.5t-47.5 -82t-16.5 -96v-606q0 -51 16.5 -98.5t47.5 -83t77 -57t105 -21.5q92 0 152.5 47t81.5 127l161 -60 q-37 -135 -142 -205.5t-253 -70.5q-96 0 -174 31.5t-131 88t-82 134t-29 172.5z" />
<glyph unicode="D" horiz-adv-x="1067" d="M131 0v1425h399q143 0 246 -52t152 -175q31 -82 34 -199.5t3 -273.5q0 -162 -2 -278.5t-33 -200.5q-29 -72 -72 -119t-98 -74.5t-121 -40t-135 -12.5h-373zM303 160h211q152 0 215.5 81t63.5 224v491q0 166 -72 239t-207 73h-211v-1108z" />
<glyph unicode="E" horiz-adv-x="931" d="M133 0v1425h756v-159h-586v-467h502v-154h-502v-479h586v-166h-756z" />
<glyph unicode="F" horiz-adv-x="911" d="M133 0v1425h756v-159h-586v-473h502v-154h-502v-639h-170z" />
<glyph unicode="G" horiz-adv-x="1036" d="M100 414v598q0 90 28 167.5t82 134t132 89.5t176 33q145 0 250.5 -72t144.5 -205l-163 -55q-20 76 -80 122t-152 46q-59 0 -105 -21.5t-78 -56.5t-48.5 -82t-16.5 -96v-613q0 -51 16.5 -98t48.5 -83t78 -57.5t105 -21.5q55 0 100.5 19.5t77 52.5t50 78t18.5 96v225h-234 v152h406v-367q0 -94 -32 -170.5t-87 -130t-132 -83t-167 -29.5q-98 0 -176 31.5t-131 88t-82 135t-29 173.5z" />
<glyph unicode="H" horiz-adv-x="1089" d="M133 0v1425h170v-626h481v626h172v-1425h-172v649h-481v-649h-170z" />
<glyph unicode="I" horiz-adv-x="444" d="M135 0v1425h172v-1425h-172z" />
<glyph unicode="J" horiz-adv-x="831" d="M-4 131l133 102q29 -35 74 -59t96 -24q94 0 158.5 51t64.5 174v1050h172v-1052q0 -104 -30.5 -177t-85 -119t-125 -67.5t-150.5 -21.5q-98 0 -177 37.5t-130 105.5z" />
<glyph unicode="K" horiz-adv-x="1056" d="M131 0v1425h172v-747q2 0 3 1t3 1q121 190 244 373.5t246 371.5h186q-92 -141 -183 -277t-184 -278l420 -870h-188l-340 707q-53 -76 -103.5 -153t-103.5 -151v-403h-172z" />
<glyph unicode="L" horiz-adv-x="905" d="M133 0v1425h170v-1259h569v-166h-739z" />
<glyph unicode="M" horiz-adv-x="1343" d="M133 0v1425h172l236 -538l135 -330h6l139 334l232 534h170v-1425h-170v995l-9 -2l-112 -274l-197 -440h-117l-198 448l-109 268l-8 -2v-993h-170z" />
<glyph unicode="N" horiz-adv-x="1150" d="M129 0v1425h166l399 -739l152 -293l8 2v1030h170v-1425h-164l-407 750l-146 284h-6v-1034h-172z" />
<glyph unicode="O" horiz-adv-x="1017" d="M90 440v572q0 72 22.5 147.5t71.5 137t129 100.5t195 39q109 0 187.5 -37t130 -97.5t76 -136t24.5 -153.5v-596q0 -98 -31 -177t-86 -135.5t-132 -86t-169 -29.5q-113 0 -192.5 36.5t-130 99t-73 144.5t-22.5 172zM258 1006l2 -564q0 -61 13.5 -115.5t44 -94t78.5 -63.5 t116 -24q49 0 93 17.5t76 50.5t51.5 80t19.5 106v611q0 33 -11.5 78t-39 85.5t-74.5 70.5t-121 30t-121 -27.5t-75.5 -67.5t-40 -87.5t-11.5 -85.5z" />
<glyph unicode="P" horiz-adv-x="991" d="M133 0v1425h406q199 0 307 -105.5t108 -322.5q0 -82 -22.5 -158.5t-70.5 -135t-126 -94.5t-188 -36h-244v-573h-170zM303 733h234q72 0 118.5 22.5t75.5 59.5t40 85t11 99q0 123 -57 195t-190 72h-232v-533z" />
<glyph unicode="Q" horiz-adv-x="1036" d="M111 442v572q0 72 22.5 146.5t71.5 136t129 100.5t194 39q109 0 188 -37t130 -96.5t75.5 -135t24.5 -153.5v-596q0 -66 -14 -123t-39 -105l143 -114l-88 -111l-143 115q-111 -92 -277 -92q-113 0 -192.5 36.5t-129.5 100t-72.5 145.5t-22.5 172zM279 1012l2 -568 q0 -61 13 -116.5t44 -95t79 -63.5t115 -24q80 0 140 43l-168 136l92 108l160 -131q16 49 16 100v611q0 33 -10 78t-38 86t-75 69.5t-121 28.5q-70 0 -118 -26.5t-76.5 -65.5t-41.5 -85t-13 -85z" />
<glyph unicode="R" horiz-adv-x="1036" d="M133 0v1425h447q174 0 274 -103t100 -294q0 -135 -60 -232.5t-185 -144.5l258 -651h-187l-237 627h-240v-627h-170zM303 776h250q115 0 172 67.5t57 184.5q0 119 -56 180.5t-177 61.5h-246v-494z" />
<glyph unicode="S" horiz-adv-x="978" d="M45 238l152 88q41 -72 110.5 -123t179.5 -51q131 0 188.5 67.5t57.5 169.5q0 57 -17.5 97t-50 69t-79.5 50.5t-105 39.5q-106 33 -181 69t-122 83t-68.5 107.5t-21.5 142.5q0 86 28.5 157.5t83 123.5t130.5 81t170 29q158 0 254 -56.5t143 -142.5l-145 -100 q-41 72 -102.5 103.5t-157.5 31.5q-119 0 -174.5 -65.5t-55.5 -161.5q0 -55 24.5 -94.5t67.5 -67t100.5 -49t125.5 -41.5q92 -29 155.5 -66t101 -86t55 -111.5t17.5 -142.5q0 -186 -111.5 -294.5t-312.5 -108.5q-166 0 -276.5 67.5t-163.5 184.5z" />
<glyph unicode="T" horiz-adv-x="825" d="M2 1270v155h821v-155h-325v-1270h-170v1270h-326z" />
<glyph unicode="U" horiz-adv-x="1062" d="M115 414v1011h170v-1017q0 -51 17 -97.5t49 -82t78 -57t103 -21.5q109 0 177.5 68.5t68.5 189.5v1017h172v-1011q0 -98 -30.5 -177t-86 -134.5t-132 -85t-169.5 -29.5q-98 0 -174.5 31.5t-131 88t-83 135.5t-28.5 171z" />
<glyph unicode="V" horiz-adv-x="960" d="M29 1425h178l168 -665l102 -461h6l105 465l166 661h178l-373 -1425h-160z" />
<glyph unicode="W" horiz-adv-x="1437" d="M39 1425h178l119 -653l65 -405h7l86 399l153 659h146l153 -661l86 -397h6l64 397l117 661h180l-283 -1425h-151l-160 692l-84 391h-6l-82 -383l-160 -700h-151z" />
<glyph unicode="X" horiz-adv-x="921" d="M8 0l363 739l-338 686h186l242 -530l241 530h187l-340 -686l364 -739h-184l-268 578l-266 -578h-187z" />
<glyph unicode="Y" horiz-adv-x="905" d="M14 1425h181q37 -92 75.5 -184t75.5 -184q25 -61 50.5 -133t47.5 -133h13l104 274l148 360h178l-352 -831v-594h-166v594z" />
<glyph unicode="Z" horiz-adv-x="845" d="M55 0v158l555 1112h-532v155h717v-147l-555 -1116h553v-162h-738z" />
<glyph unicode="[" horiz-adv-x="483" d="M139 -211v1641h312v-109h-164v-1423h164v-109h-312z" />
<glyph unicode="\" horiz-adv-x="540" d="M10 1462h127l387 -1513h-129z" />
<glyph unicode="]" horiz-adv-x="483" d="M43 -102h162v1423h-162v109h307v-1643h-307v111z" />
<glyph unicode="^" d="M37 680l362 741h117l365 -741h-140l-284 592l-283 -592h-137z" />
<glyph unicode="_" horiz-adv-x="1024" d="M0 -141h1024v-125h-1024v125z" />
<glyph unicode="`" horiz-adv-x="868" d="M338 1475l156 51l143 -355l-98 -38z" />
<glyph unicode="a" horiz-adv-x="872" d="M74 285q0 135 84 224t268 89h186v125q0 70 -46 108.5t-136 38.5q-59 0 -111.5 -21.5t-74.5 -74.5q-33 18 -65 37.5t-64 40.5q41 84 126 129t189 45q72 0 135.5 -15.5t111.5 -50t75.5 -93t27.5 -146.5v-721h-168v74l-8 4q-35 -45 -97.5 -67.5t-141.5 -22.5 q-74 0 -129.5 23.5t-91 64.5t-53 95t-17.5 114zM231 295q0 -68 45.5 -110t137.5 -42q86 0 142 39t56 135v140h-198q-80 0 -131.5 -38t-51.5 -124z" />
<glyph unicode="b" horiz-adv-x="884" d="M100 0v1487h166v-580h4q47 63 108.5 90t123.5 27q104 0 164.5 -44t92.5 -114.5t40 -163t8 -186.5q0 -104 -10.5 -200.5t-43 -169t-92 -115.5t-159.5 -43q-72 0 -129.5 25.5t-102.5 82.5q-2 0 -2 -1t-2 -1v-94h-166zM262 532q0 -59 1 -127.5t18.5 -127t56.5 -96.5t113 -38 q61 0 98 27t57.5 76t26.5 115.5t6 146.5q0 84 -7 149.5t-28.5 110.5t-58.5 68.5t-94 23.5q-63 0 -101.5 -30.5t-58 -79t-24.5 -105.5t-5 -113z" />
<glyph unicode="c" horiz-adv-x="788" d="M63 528q0 227 92.5 362.5t288.5 135.5q111 0 190 -50t120 -136l-136 -84q-23 53 -67.5 82.5t-104.5 29.5q-68 0 -110.5 -26.5t-66 -72.5t-32 -108.5t-8.5 -136.5t8.5 -142.5t32 -121.5t65.5 -85t109 -32q61 0 105 32t67 73q35 -20 70 -37.5t70 -38.5q-41 -86 -121 -135 t-191 -49q-115 0 -188.5 39t-116.5 109.5t-59.5 171t-16.5 220.5z" />
<glyph unicode="d" horiz-adv-x="886" d="M80 504q0 94 11 187t45 167t97.5 120t167.5 46q61 0 115.5 -22.5t99.5 -73.5h5v559h165v-1487h-165v94q-2 0 -2.5 1t-2.5 1q-45 -57 -102 -82.5t-129 -25.5q-100 0 -160.5 42t-92.5 112.5t-42 164.5t-10 197zM248 508q0 -74 6 -139.5t26.5 -114.5t57.5 -79t98 -30 q74 0 113 41t55.5 101.5t17.5 127t1 117.5q0 63 -6.5 122t-25 105t-55.5 73.5t-98 27.5q-63 0 -101 -28.5t-57.5 -76.5t-25.5 -112.5t-6 -134.5z" />
<glyph unicode="e" horiz-adv-x="868" d="M76 506q0 96 15 189t55 167t110 119t178 45q172 0 263 -109.5t91 -302.5v-157h-546q0 -68 8 -126.5t30.5 -101.5t63.5 -67.5t107 -24.5q55 0 101 35t75 82l135 -72q-41 -90 -122 -142t-183 -52t-174 28.5t-118 91t-67.5 161t-21.5 237.5zM246 590h379q0 139 -48.5 209.5 t-140.5 70.5q-106 0 -146 -75.5t-44 -204.5z" />
<glyph unicode="f" horiz-adv-x="538" d="M35 877v135h112v231q0 127 69 188.5t177 61.5h107v-154h-84q-57 0 -79 -33.5t-22 -82.5v-211h185v-135h-185v-877h-168v877h-112z" />
<glyph unicode="g" horiz-adv-x="903" d="M80 498q0 98 9 193t40 170t92.5 120t165.5 45q72 0 129 -25.5t102 -82.5q2 0 2.5 1t2.5 1v94h165v-1022q0 -188 -89 -302t-281 -114q-98 0 -178 47t-121 133l137 80q23 -41 66 -72.5t102 -31.5q104 0 151.5 61.5t47.5 171.5v141h-5q-47 -63 -108 -89.5t-123 -26.5 q-104 0 -165.5 44t-92.5 114.5t-40 161.5t-9 188zM250 506q0 -82 6 -147.5t26.5 -110.5t55.5 -69.5t94 -24.5q61 0 99 27.5t58.5 73.5t28 104.5t7.5 121.5q0 59 -1 127t-17.5 125.5t-55.5 95t-113 37.5q-66 0 -103.5 -28.5t-56 -77.5t-23.5 -114.5t-5 -139.5z" />
<glyph unicode="h" horiz-adv-x="897" d="M96 0v1487h166v-588h6q43 59 106.5 92t137.5 33q61 0 113.5 -20.5t90.5 -60.5t60.5 -96t22.5 -130v-717h-166v662q0 92 -46 145t-138 53q-86 0 -137.5 -53t-51.5 -150v-657h-164z" />
<glyph unicode="i" horiz-adv-x="403" d="M119 0v1014h166v-1014h-166zM119 1260v165h166v-165h-166z" />
<glyph unicode="j" horiz-adv-x="430" d="M-25 -266q4 0 20.5 -1t18.5 1q63 2 91 42t28 111v1127h166v-1164q0 -57 -16.5 -106t-50 -86t-84 -57.5t-117.5 -20.5h-56v154zM133 1260v165h166v-165h-166z" />
<glyph unicode="k" d="M113 0v1487h166v-963h4l360 490h191l-289 -387l346 -627h-184l-269 494l-159 -222v-272h-166z" />
<glyph unicode="l" horiz-adv-x="464" d="M121 236v1251h166v-1225q0 -57 22.5 -86t79.5 -29h35v-153h-45q-121 0 -191 51q-68 50 -67 183v8z" />
<glyph unicode="m" horiz-adv-x="1437" d="M106 0v1012h166v-109h4q86 121 236 121q84 0 147.5 -36t100.5 -93h2q59 68 125.5 98.5t154.5 30.5q61 0 113.5 -22.5t91.5 -62.5t60.5 -96.5t21.5 -125.5v-717h-166v602q0 55 -8 102.5t-27.5 81t-54.5 53t-88 19.5q-98 0 -141 -68.5t-43 -185.5v-604h-166v602 q0 55 -8.5 101.5t-28.5 81t-55 54t-88 19.5q-98 0 -141.5 -71.5t-43.5 -188.5v-598h-164z" />
<glyph unicode="n" horiz-adv-x="892" d="M94 0v1014h166v-113h6q43 59 106.5 91t137.5 32q61 0 113.5 -21.5t90.5 -61.5t60.5 -96.5t22.5 -127.5v-717h-166v662q0 92 -47 144t-140 52q-84 0 -135 -54t-51 -147v-657h-164z" />
<glyph unicode="o" horiz-adv-x="897" d="M82 500q0 96 9 184t32 143q41 92 125 145.5t207 53.5q121 0 190.5 -48t110.5 -120q14 -25 24.5 -64.5t16.5 -88t9 -100.5t3 -99q0 -29 -2 -70t-7 -86t-11.5 -86t-14.5 -65q-18 -59 -54 -100.5t-82 -66t-98.5 -35.5t-107.5 -11q-117 0 -191.5 49t-111.5 127 q-27 55 -37 146t-10 192zM246 481q0 -68 3 -127t19 -100q23 -55 66 -86t108 -31q63 0 111.5 31t71.5 98q10 29 14 97.5t4 152.5q0 72 -4 136.5t-16 101.5q-23 61 -68 92t-104 31t-106.5 -29t-70.5 -86q-14 -39 -21 -111.5t-7 -169.5z" />
<glyph unicode="p" horiz-adv-x="884" d="M90 -410v1424h166v-94q2 0 2 -1t2 -1q45 57 102.5 82.5t129.5 25.5q100 0 159.5 -42t92 -112.5t43 -165t10.5 -196.5q0 -96 -11.5 -189.5t-46 -167t-98 -118.5t-166.5 -45q-127 0 -215 100h-4v-500h-166zM254 481q0 -55 5 -112.5t23.5 -105.5t55.5 -78.5t100 -30.5 t100 28.5t57.5 76.5t27 111.5t6.5 135.5q0 74 -6.5 139.5t-25.5 114.5t-56 78.5t-101 29.5q-74 0 -112.5 -37.5t-55 -95t-17.5 -126t-1 -128.5z" />
<glyph unicode="q" d="M88 498q0 98 11.5 193t44 170t93 120t160.5 45q72 0 129.5 -25.5t102.5 -82.5q2 0 2 1t2 1v94h166v-1428h-166v520h-4q-47 -63 -108.5 -89.5t-123.5 -26.5q-104 0 -165.5 44t-93.5 114.5t-41 161.5t-9 188zM260 506q0 -72 5 -135.5t24.5 -111.5t58 -76.5t101.5 -28.5 q61 0 98 30.5t56.5 78.5t25.5 105.5t6 112.5q0 59 -1 128t-17.5 127.5t-55.5 96t-112 37.5q-61 0 -98.5 -29.5t-58 -79.5t-26.5 -115.5t-6 -139.5z" />
<glyph unicode="r" horiz-adv-x="636" d="M121 0v1012h164v-121h6q47 80 106.5 107.5t141.5 27.5q59 -4 92 -22l-37 -179q-49 23 -100 23q-94 0 -151.5 -52.5t-57.5 -166.5v-629h-164z" />
<glyph unicode="s" horiz-adv-x="829" d="M55 201l135 78q33 -66 87.5 -103t136.5 -37q86 0 134 36t48 116q0 39 -14.5 63.5t-40 41t-60.5 27.5t-75 23q-74 18 -133.5 42t-102.5 58t-65.5 80t-22.5 111q0 135 88 212t242 77q137 0 213.5 -51t111.5 -144l-129 -79q-59 122 -196 122h-2q-92 0 -128 -41.5t-36 -95.5 q0 -35 18.5 -57.5t50 -37.5t73.5 -27.5t87 -24.5q72 -16 125 -40t89 -59.5t53.5 -85t17.5 -118.5q0 -137 -92.5 -219t-257.5 -82q-131 0 -219.5 55t-135.5 160z" />
<glyph unicode="t" horiz-adv-x="522" d="M33 879v135h112v260h166v-260h144v-135h-144v-600q0 -63 24.5 -95t80.5 -32h55v-152h-92q-117 0 -175.5 66.5t-58.5 164.5v648h-112z" />
<glyph unicode="u" horiz-adv-x="905" d="M94 295v717h166v-662q0 -92 50 -146t136 -54q84 0 135.5 55t51.5 149v658h164v-1012h-164v109h-6q-43 -61 -107.5 -91t-136.5 -30q-61 0 -114.5 21.5t-91.5 61.5t-60.5 96t-22.5 128z" />
<glyph unicode="v" horiz-adv-x="808" d="M12 1014h178q8 -27 24.5 -87.5t35 -128t34 -128t25.5 -86.5l97 -346h6q6 18 19 68t27.5 106.5t27 105.5t18.5 68q8 27 24.5 87t33 126.5t31.5 126t25 88.5h179q-16 -43 -40 -122t-53.5 -178.5t-60.5 -207t-60.5 -206.5t-54 -179t-39.5 -121h-167q-16 41 -41 121 t-53.5 179t-60.5 206.5t-60.5 207t-54 178.5t-40.5 122z" />
<glyph unicode="w" horiz-adv-x="1300" d="M16 1014h177q35 -135 66.5 -268.5t64.5 -268.5l49 -209h8l51 207q33 133 68 267.5t69 271.5h162q35 -131 66.5 -262t64.5 -263l56 -231h8l51 221q33 135 62.5 267.5t62.5 267.5h178l-276 -1014h-162q-33 123 -67 245t-64 247l-64 235h-4q-16 -66 -32.5 -132.5 t-32.5 -129.5l-123 -465h-164z" />
<glyph unicode="x" horiz-adv-x="806" d="M18 0l297 520l-282 494h186l187 -371l184 371h186l-282 -496l297 -518h-187l-198 389l-201 -389h-187z" />
<glyph unicode="y" horiz-adv-x="786" d="M2 1014h176l125 -406l96 -342h7l90 342l118 406h172l-364 -1217q-33 -109 -100.5 -160t-163.5 -51h-54v144h50q96 0 131 145l43 150z" />
<glyph unicode="z" horiz-adv-x="757" d="M59 0v145l455 721h-426v146h612v-142l-452 -714h452v-156h-641z" />
<glyph unicode="{" horiz-adv-x="503" d="M35 555v104q39 6 66.5 30t45 59.5t25.5 82t8 95.5v280q0 102 53.5 161.5t131.5 59.5h114v-110h-61q-27 0 -44.5 -16.5t-28.5 -42t-15 -57.5t-4 -62v-258q0 -66 -15.5 -114t-38 -81t-46 -50.5t-40.5 -23.5v-6q16 -6 40 -23.5t46.5 -50t38 -79.5t15.5 -111v-266 q0 -31 4 -62.5t15 -57.5t28.5 -42t44.5 -16h61v-109h-114q-78 0 -131.5 59.5t-53.5 159.5v285q0 109 -33.5 180.5t-111.5 81.5z" />
<glyph unicode="|" horiz-adv-x="423" d="M147 -332v1798h132v-1798h-132z" />
<glyph unicode="}" horiz-adv-x="503" d="M31 -102h63q27 0 44.5 16t28.5 42t15 57.5t4 62.5v266q0 63 15.5 110.5t38 80t46 50t40.5 23.5v6q-16 6 -40 23.5t-46.5 50.5t-38 81t-15.5 114v258q0 31 -3 62.5t-12 57t-27.5 42t-49.5 16.5h-63v106h114q86 0 136.5 -59t50.5 -158v-280q0 -49 8 -95.5t24.5 -82t44 -59 t66.5 -30.5v-104q-78 -10 -110.5 -82t-32.5 -180v-285q0 -100 -53.5 -159.5t-131.5 -59.5h-116v109z" />
<glyph unicode="~" d="M37 510q45 78 105.5 122t136.5 44q49 0 93 -17.5t87 -39t84 -39t82 -17.5q45 0 71.5 25.5t65.5 75.5l104 -72q-47 -78 -103 -127t-140 -49q-39 0 -82 18.5t-88 40t-89.5 39.5t-87.5 18q-47 0 -72.5 -22.5t-66.5 -69.5z" />
<glyph unicode="&#xa2;" d="M104 528q0 205 76 337t238 155v211h92v-207q102 -6 174 -55t111 -129l-136 -84q-45 100 -149 110v-723q53 8 90 38t57 67q35 -20 70 -37.5t70 -38.5q-39 -80 -113 -129t-174 -53v-230h-92v232q-92 12 -153.5 55t-96.5 112.5t-49.5 163t-14.5 205.5zM270 524 q0 -63 6.5 -123.5t22.5 -109.5t45 -85t74 -52v704q-47 -12 -76 -43t-44 -75t-21.5 -99.5t-6.5 -116.5z" />
<glyph unicode="&#xa3;" d="M63 0v137q59 94 99.5 189.5t48.5 218.5l4 65h-149v135h124q-10 51 -24 95.5t-26.5 84.5t-21.5 81t-9 88q0 72 23.5 134t67.5 108t107.5 73t141.5 27q129 0 232 -61.5t155 -207.5l-156 -59q-45 102 -100.5 136t-124.5 34q-63 0 -114.5 -48t-51.5 -140q0 -39 9 -78 t21.5 -81t25.5 -88t22 -98h260v-135h-248q0 -135 -27.5 -241.5t-87.5 -214.5h537v-154h-738z" />
<glyph unicode="&#xa5;" d="M43 1425h168q59 -162 117.5 -322.5t117.5 -322.5h9q59 162 116.5 323t114.5 322h170l-276 -714h227v-105h-266l-11 -31v-131h277v-106h-277v-338h-155v338h-275v106h275v129l-10 33h-265v105h224z" />
<glyph unicode="&#xa8;" horiz-adv-x="874" d="M184 1214v172h162v-172h-162zM526 1214v172h160v-172h-160z" />
<glyph unicode="&#xa9;" horiz-adv-x="1542" d="M104 698q0 154 47.5 286t134.5 228.5t209.5 150.5t274.5 54q150 0 273.5 -54t210.5 -150.5t135.5 -228.5t48.5 -286t-48.5 -283.5t-135.5 -226t-210.5 -150.5t-273.5 -54q-154 0 -276.5 54t-209.5 150.5t-133.5 226.5t-46.5 283zM227 698q0 -127 39 -235.5t109.5 -190.5 t171 -128t223.5 -46q125 0 226.5 46t171 128t107.5 190.5t38 235.5t-38 238t-108.5 191.5t-171 128t-225.5 47.5q-127 0 -227.5 -47.5t-170 -128t-107.5 -191.5t-38 -238zM512 508v360q0 111 68.5 186.5t193.5 75.5q88 0 155.5 -47t92.5 -133l-115 -45q-12 47 -46 77t-87 30 q-70 0 -104.5 -44t-34.5 -98v-366q0 -55 35 -100.5t104 -45.5q49 0 85 30t48 79l115 -43q-23 -86 -91.5 -134t-156.5 -48q-123 0 -192.5 74.5t-69.5 191.5z" />
<glyph unicode="&#xab;" horiz-adv-x="915" d="M90 475l240 381h159l-235 -381l235 -381h-159zM432 475l240 381h159l-233 -381l233 -381h-159z" />
<glyph unicode="&#xad;" horiz-adv-x="755" d="M104 455v145h560v-145h-560z" />
<glyph unicode="&#xae;" horiz-adv-x="1071" d="M123 1006q0 94 28.5 175t83 139t130 92t170.5 34q92 0 166.5 -34t129 -92t83 -139t28.5 -175t-28.5 -174t-83 -138.5t-129 -91.5t-166.5 -33q-94 0 -170 33t-130.5 91.5t-83 138t-28.5 174.5zM207 1008q0 -78 23.5 -144.5t66.5 -115t103.5 -75t134.5 -26.5q76 0 136 27.5 t101 76t63.5 114t22.5 143.5q0 76 -22.5 142.5t-65.5 115.5t-102 77.5t-133 28.5q-78 0 -138.5 -28.5t-102.5 -77.5t-64.5 -116t-22.5 -142zM381 741v523h149q76 0 125.5 -34t49.5 -120q0 -100 -84 -141q27 -55 52 -112.5t48 -115.5h-96q-23 53 -45.5 107.5t-44.5 107.5h-68 v-215h-86zM467 1032h65q41 0 63.5 18.5t22.5 59.5q0 47 -25.5 61.5t-76.5 14.5h-49v-154z" />
<glyph unicode="&#xb4;" horiz-adv-x="868" d="M338 1171l143 355l156 -51l-201 -342z" />
<glyph unicode="&#xb8;" horiz-adv-x="882" d="M248 -387l28 76q39 -18 75 -22.5t65 -4.5q35 0 62.5 20.5t27.5 55.5q0 41 -32 65.5t-99 20.5l-37 31l61 204l84 -6l-45 -149q53 -4 88 -20.5t56.5 -41t30 -51.5t8.5 -51q0 -25 -10.5 -53.5t-33 -52t-59.5 -39t-88 -15.5h-28.5t-46 3t-54.5 10.5t-53 19.5z" />
<glyph unicode="&#xbb;" horiz-adv-x="915" d="M92 94l234 381l-234 381h160l240 -381l-240 -381h-160zM434 94l236 381l-236 381h160l240 -381l-240 -381h-160z" />
<glyph unicode="&#x2c6;" horiz-adv-x="1005" d="M180 1198l289 299h102l273 -295l-76 -69l-256 204l-256 -207z" />
<glyph unicode="&#x2da;" horiz-adv-x="872" d="M289 1300q0 37 14 69t39 55.5t57.5 38t71.5 14.5q35 0 66.5 -14.5t55 -38t38 -55.5t14.5 -69q0 -72 -51 -122t-123 -50q-78 0 -130 50.5t-52 121.5zM375 1300q0 -37 27.5 -62.5t68.5 -25.5q37 0 63.5 26t26.5 62q0 39 -26.5 66t-63.5 27q-41 0 -68.5 -27t-27.5 -66z" />
<glyph unicode="&#x2dc;" horiz-adv-x="874" d="M109 1243q35 70 88 119t112 49q33 0 66 -13.5t63.5 -29.5t61 -29.5t59.5 -13.5q55 0 117 86l92 -57q-41 -84 -93 -126t-108 -42q-35 0 -67.5 13t-64.5 28.5t-61.5 29t-56.5 13.5q-31 0 -58.5 -18.5t-59.5 -59.5z" />
<glyph unicode="&#x401;" horiz-adv-x="931" d="M133 0v1425h756v-159h-586v-467h502v-154h-502v-479h586v-166h-756zM254 1532v172h162v-172h-162zM596 1532v172h160v-172h-160z" />
<glyph unicode="&#x402;" horiz-adv-x="1226" d="M10 1272v151h901v-151h-413v-426h6q72 57 150.5 87t148.5 30q176 0 255 -116t79 -368q0 -109 -16.5 -202t-58.5 -160.5t-113.5 -105.5t-180.5 -38h-35.5t-38.5 4v142h31q76 0 123 25.5t72.5 71.5t35 111.5t9.5 143.5q0 74 -7.5 134.5t-29 104.5t-61.5 67.5t-103 23.5 q-80 0 -149.5 -35t-116.5 -88v-678h-172v1272h-316z" />
<glyph unicode="&#x403;" horiz-adv-x="903" d="M133 0v1425h739v-159h-569v-1266h-170zM340 1569l297 241l111 -120l-340 -201z" />
<glyph unicode="&#x404;" horiz-adv-x="960" d="M102 414v598q0 90 28 167.5t81 134t131 89.5t176 33q145 0 250.5 -72t144.5 -201l-161 -63q-20 78 -79 125t-155 47q-59 0 -105 -21.5t-77 -56.5t-47.5 -82t-16.5 -96v-217h463v-158h-463v-231q0 -51 16.5 -98.5t47.5 -83t77 -57t105 -21.5q92 0 152.5 47t81.5 127 l161 -60q-37 -135 -142 -205.5t-253 -70.5q-96 0 -174 31.5t-131 88t-82 134t-29 172.5z" />
<glyph unicode="&#x405;" horiz-adv-x="978" d="M45 238l152 88q41 -72 110.5 -123t179.5 -51q131 0 188.5 67.5t57.5 169.5q0 57 -17.5 97t-50 69t-79.5 50.5t-105 39.5q-106 33 -181 69t-122 83t-68.5 107.5t-21.5 142.5q0 86 28.5 157.5t83 123.5t130.5 81t170 29q158 0 254 -56.5t143 -142.5l-145 -100 q-41 72 -102.5 103.5t-157.5 31.5q-119 0 -174.5 -65.5t-55.5 -161.5q0 -55 24.5 -94.5t67.5 -67t100.5 -49t125.5 -41.5q92 -29 155.5 -66t101 -86t55 -111.5t17.5 -142.5q0 -186 -111.5 -294.5t-312.5 -108.5q-166 0 -276.5 67.5t-163.5 184.5z" />
<glyph unicode="&#x406;" horiz-adv-x="444" d="M135 0v1425h172v-1425h-172z" />
<glyph unicode="&#x407;" horiz-adv-x="444" d="M-27 1581v172h162v-172h-162zM135 0v1425h172v-1425h-172zM315 1581v172h160v-172h-160z" />
<glyph unicode="&#x408;" horiz-adv-x="831" d="M-4 131l133 102q29 -35 74 -59t96 -24q94 0 158.5 51t64.5 174v1050h172v-1052q0 -104 -30.5 -177t-85 -119t-125 -67.5t-150.5 -21.5q-98 0 -177 37.5t-130 105.5z" />
<glyph unicode="&#x409;" horiz-adv-x="1581" d="M8 100q53 27 97.5 56.5t75 81t48 135.5t17.5 223v829h641v-596h243q111 0 189 -31.5t126 -87t70.5 -128t22.5 -154.5q0 -209 -108.5 -318.5t-307.5 -109.5h-407v1270h-309v-619q0 -182 -23 -302t-66 -195.5t-106.5 -117.5t-142.5 -69zM887 160h229q133 0 190.5 72.5 t57.5 189.5q0 49 -11.5 95t-40 82t-75.5 56.5t-119 20.5h-231v-516z" />
<glyph unicode="&#x40a;" horiz-adv-x="1607" d="M131 0v1425h172v-610h438v610h172v-610h232q111 0 190.5 -28.5t130 -80t75 -124t24.5 -160.5q0 -211 -107.5 -316.5t-306.5 -105.5h-410v657h-438v-657h-172zM913 158h230q133 0 190.5 68.5t57.5 189.5q0 49 -12.5 93t-41 76.5t-77 52t-119.5 19.5h-228v-499z" />
<glyph unicode="&#x40b;" horiz-adv-x="1247" d="M8 1274v151h910v-151h-420v-416l6 -4q78 66 151.5 87.5t139.5 21.5q160 0 245.5 -90.5t85.5 -249.5l2 -623h-172v535q0 55 -7 104t-28.5 85t-61.5 56.5t-103 20.5q-80 0 -145.5 -35t-112.5 -88v-678h-172v1274h-318z" />
<glyph unicode="&#x40c;" horiz-adv-x="1026" d="M127 0v1423h172v-620h152q33 0 67.5 6t68.5 27.5t62.5 63.5t48.5 112l115 411h162l-111 -417q-29 -104 -76 -175t-112 -94q86 -29 131 -101.5t72 -178.5l120 -457h-178l-108 428q-18 72 -46 116t-61 67.5t-69.5 30.5t-75.5 7h-162v-649h-172zM401 1569l297 241l111 -120 l-340 -201z" />
<glyph unicode="&#x40e;" horiz-adv-x="929" d="M27 1423h176l153 -483l115 -367h8l25.5 85t45 151t55.5 184.5t55.5 186.5t45 154.5t27.5 88.5h172q-90 -276 -177 -550.5t-175 -550.5q-33 -111 -67.5 -175.5t-73.5 -98.5t-80 -44t-86 -12h-117v147h96q43 0 79 30t65 107l18 66q-90 272 -180 540.5t-180 540.5zM199 1712 h141q2 -20 12 -42.5t28.5 -42t44.5 -32t56 -12.5q35 0 61.5 12.5t45 32t28 42t9.5 42.5h137q-4 -41 -19.5 -86t-47 -83t-84 -63.5t-130.5 -25.5q-80 0 -133 25.5t-86 63.5t-48 83t-15 86z" />
<glyph unicode="&#x40f;" horiz-adv-x="1085" d="M133 0v1425h170v-1265h479v1265h172v-1425h-319v-317h-174v317h-328z" />
<glyph unicode="&#x410;" horiz-adv-x="1017" d="M18 0l414 1425h154l415 -1425h-176l-90 324h-454l-88 -324h-175zM319 477h377l-104 369l-80 315h-8l-80 -313z" />
<glyph unicode="&#x411;" horiz-adv-x="1013" d="M129 0v1425h709v-157h-537v-437h231q111 0 191 -30.5t130 -83.5t74.5 -128t24.5 -163q0 -211 -107.5 -318.5t-305.5 -107.5h-410zM301 160h229q133 0 190.5 69.5t57.5 190.5q0 49 -12 95t-41 81t-77 55.5t-120 20.5h-227v-512z" />
<glyph unicode="&#x412;" horiz-adv-x="1036" d="M133 0v1425h410q197 0 292 -101t95 -273q0 -98 -37 -174t-145 -129v-7q55 -14 94 -46.5t63.5 -77t35.5 -98.5t11 -111q0 -201 -103.5 -304.5t-279.5 -103.5h-436zM303 166h248q68 0 113 20.5t71.5 55t37.5 81t11 99.5q0 106 -54 175t-183 69h-244v-500zM303 813h223 q123 0 179.5 63.5t56.5 167.5q0 102 -56.5 164t-179.5 62h-223v-457z" />
<glyph unicode="&#x413;" horiz-adv-x="903" d="M133 0v1425h739v-159h-569v-1266h-170z" />
<glyph unicode="&#x414;" horiz-adv-x="1183" d="M27 133l86 17q47 31 75.5 80t45 128.5t23.5 196.5t11 285l17 585h757q0 -322 1 -639t1 -639h101v-436h-160v289h-799v-289h-159v422zM322 147h550v1129h-432l-16 -490q-8 -238 -23.5 -393t-78.5 -246z" />
<glyph unicode="&#x415;" horiz-adv-x="931" d="M133 0v1425h756v-159h-586v-467h502v-154h-502v-479h586v-166h-756z" />
<glyph unicode="&#x416;" horiz-adv-x="1603" d="M37 0l121 457q27 106 71.5 179t130.5 101q-76 23 -117.5 93.5t-70.5 175.5l-111 417h162l115 -411q18 -72 48 -113t63.5 -62.5t68.5 -27.5t68 -6h131v624h172v-624h131q31 0 66.5 6t69.5 27.5t62.5 62.5t47.5 113l114 411h164l-112 -417q-27 -104 -75 -175t-114 -94 q86 -29 131 -101.5t74 -178.5l119 -457h-178l-109 428q-18 72 -45 115t-59.5 66.5t-70.5 31.5t-77 8h-139v-649h-172v649h-142q-39 0 -75.5 -8t-69.5 -31.5t-60.5 -66.5t-45.5 -115l-109 -428h-178z" />
<glyph unicode="&#x417;" horiz-adv-x="956" d="M25 299l161 57q18 -106 88 -159.5t166 -53.5q104 0 173 62.5t69 208.5q0 113 -52 185.5t-167 72.5h-121v149h121q104 0 157.5 67.5t53.5 172.5q0 115 -62.5 165t-160.5 50t-161 -57.5t-85 -147.5l-164 55q31 145 140.5 227.5t269.5 82.5q195 0 295 -90.5t100 -276.5 q0 -39 -8.5 -85t-27.5 -91t-51 -82t-77 -57v-9q57 -25 92 -63.5t53.5 -84.5t24.5 -94t6 -91q0 -193 -107.5 -308.5t-314.5 -115.5q-80 0 -150.5 19.5t-125 59t-89 97t-46.5 135.5z" />
<glyph unicode="&#x418;" horiz-adv-x="1150" d="M131 0v1425h170v-1081l8 -2l213 426l338 657h166v-1425h-172v1085h-6l-199 -395l-354 -690h-164z" />
<glyph unicode="&#x419;" horiz-adv-x="1150" d="M131 0v1425h170v-1081l8 -2l213 426l338 657h166v-1425h-172v1085h-6l-199 -395l-354 -690h-164zM293 1769h141q2 -20 12.5 -42.5t29 -42t44 -32t55.5 -12.5q35 0 62 12.5t45 32t27.5 42t9.5 42.5h137q-4 -41 -19.5 -86t-47 -82.5t-84 -63.5t-130.5 -26q-80 0 -133 26 t-85.5 63.5t-48 83t-15.5 85.5z" />
<glyph unicode="&#x41a;" horiz-adv-x="1026" d="M127 0v1423h172v-620h152q33 0 67.5 6t68.5 27.5t62.5 63.5t48.5 112l115 411h162l-111 -417q-29 -104 -76 -175t-112 -94q86 -29 131 -101.5t72 -178.5l120 -457h-178l-108 428q-18 72 -46 116t-61 67.5t-69.5 30.5t-75.5 7h-162v-649h-172z" />
<glyph unicode="&#x41b;" horiz-adv-x="1112" d="M0 100q53 27 97 56.5t75 81t48.5 135.5t17.5 221v831h737v-1425h-170v1270h-408v-619q0 -184 -21.5 -304t-63.5 -195.5t-105.5 -116.5t-147.5 -68q-16 33 -29.5 66t-29.5 67z" />
<glyph unicode="&#x41c;" horiz-adv-x="1343" d="M133 0v1425h172l236 -538l135 -330h6l139 334l232 534h170v-1425h-170v995l-9 -2l-112 -274l-197 -440h-117l-198 448l-109 268l-8 -2v-993h-170z" />
<glyph unicode="&#x41d;" horiz-adv-x="1089" d="M133 0v1425h170v-626h481v626h172v-1425h-172v649h-481v-649h-170z" />
<glyph unicode="&#x41e;" horiz-adv-x="1017" d="M90 440v572q0 72 22.5 147.5t71.5 137t129 100.5t195 39q109 0 187.5 -37t130 -97.5t76 -136t24.5 -153.5v-596q0 -98 -31 -177t-86 -135.5t-132 -86t-169 -29.5q-113 0 -192.5 36.5t-130 99t-73 144.5t-22.5 172zM258 1006l2 -564q0 -61 13.5 -115.5t44 -94t78.5 -63.5 t116 -24q49 0 93 17.5t76 50.5t51.5 80t19.5 106v611q0 33 -11.5 78t-39 85.5t-74.5 70.5t-121 30t-121 -27.5t-75.5 -67.5t-40 -87.5t-11.5 -85.5z" />
<glyph unicode="&#x41f;" horiz-adv-x="1075" d="M133 0v1425h811v-1425h-172v1276h-469v-1276h-170z" />
<glyph unicode="&#x420;" horiz-adv-x="991" d="M133 0v1425h406q199 0 307 -105.5t108 -322.5q0 -82 -22.5 -158.5t-70.5 -135t-126 -94.5t-188 -36h-244v-573h-170zM303 733h234q72 0 118.5 22.5t75.5 59.5t40 85t11 99q0 123 -57 195t-190 72h-232v-533z" />
<glyph unicode="&#x421;" horiz-adv-x="960" d="M102 414v598q0 90 28 167.5t81 134t131 89.5t176 33q145 0 250.5 -72t144.5 -201l-161 -63q-20 78 -79 125t-155 47q-59 0 -105 -21.5t-77 -56.5t-47.5 -82t-16.5 -96v-606q0 -51 16.5 -98.5t47.5 -83t77 -57t105 -21.5q92 0 152.5 47t81.5 127l161 -60 q-37 -135 -142 -205.5t-253 -70.5q-96 0 -174 31.5t-131 88t-82 134t-29 172.5z" />
<glyph unicode="&#x422;" horiz-adv-x="825" d="M2 1270v155h821v-155h-325v-1270h-170v1270h-326z" />
<glyph unicode="&#x423;" horiz-adv-x="929" d="M27 1423h176l153 -483l115 -367h8l25.5 85t45 151t55.5 184.5t55.5 186.5t45 154.5t27.5 88.5h172q-90 -276 -177 -550.5t-175 -550.5q-33 -111 -67.5 -175.5t-73.5 -98.5t-80 -44t-86 -12h-117v147h96q43 0 79 30t65 107l18 66q-90 272 -180 540.5t-180 540.5z" />
<glyph unicode="&#x424;" horiz-adv-x="1255" d="M88 739q0 287 108.5 440.5t344.5 174.5h2v71h170v-71h8q240 -20 346.5 -174t106.5 -441q0 -154 -25 -264t-79 -185t-140 -117t-209 -58h-8v-115h-170v115h-2q-125 8 -211 50t-140.5 118.5t-78 189.5t-23.5 266zM252 741q0 -139 20.5 -229t57.5 -144.5t90 -78t121 -27.5 v948q-147 -6 -218 -119.5t-71 -349.5zM717 262q68 4 122 26.5t93 76t60.5 144.5t21.5 232q0 240 -76 351.5t-221 117.5v-948z" />
<glyph unicode="&#x425;" horiz-adv-x="921" d="M8 0l363 739l-338 686h186l242 -530l241 530h187l-340 -686l364 -739h-184l-268 578l-266 -578h-187z" />
<glyph unicode="&#x426;" horiz-adv-x="1110" d="M133 0v1425h170v-1265h477v1265h170v-1267h113v-445h-160v287h-770z" />
<glyph unicode="&#x427;" horiz-adv-x="1046" d="M96 997v428h168v-417q0 -84 11.5 -140.5t39 -91.5t73.5 -49t116 -14q47 0 113.5 16t123.5 57v639h172v-1425h-172v639q-63 -35 -136 -52.5t-140 -17.5q-182 0 -275.5 100.5t-93.5 327.5z" />
<glyph unicode="&#x428;" horiz-adv-x="1552" d="M127 0v1425h170v-1263h393v1263h170v-1263h395v1263h172v-1425h-1300z" />
<glyph unicode="&#x429;" horiz-adv-x="1591" d="M125 0v1425h170v-1265h393v1265h170v-1265h395v1265h172v-1267h113v-445h-160v287h-1253z" />
<glyph unicode="&#x42a;" horiz-adv-x="1247" d="M25 1268v157h534v-594h234q111 0 189.5 -30.5t129.5 -83.5t74.5 -128t23.5 -163q0 -211 -107.5 -318.5t-305.5 -107.5h-408v1268h-364zM559 160h232q133 0 190 69.5t57 190.5q0 49 -12 95t-41 81t-77 55.5t-120 20.5h-229v-512z" />
<glyph unicode="&#x42b;" horiz-adv-x="1386" d="M139 0v1425h170v-596h234q111 0 189.5 -29.5t129.5 -83.5t75 -128t24 -162q0 -211 -108 -318.5t-306 -107.5h-408zM309 160h232q133 0 190 69.5t57 190.5q0 49 -12 94t-40.5 81t-77 56.5t-119.5 20.5h-230v-512zM1087 0v1425h173v-1425h-173z" />
<glyph unicode="&#x42c;" horiz-adv-x="989" d="M129 0v1425h172v-594h231q111 0 191 -30.5t130 -83.5t74.5 -128t24.5 -163q0 -211 -107.5 -318.5t-305.5 -107.5h-410zM301 160h229q133 0 190.5 69.5t57.5 190.5q0 49 -12 95t-41 81t-77 55.5t-120 20.5h-227v-512z" />
<glyph unicode="&#x42d;" horiz-adv-x="964" d="M43 279l168 57q18 -92 75.5 -141.5t149.5 -49.5q72 0 119 26t74.5 68t39 93t11.5 102v219h-412v158h412v178q0 57 -12.5 109.5t-40 91.5t-72.5 62.5t-113 23.5q-92 0 -151.5 -53.5t-81.5 -139.5l-164 58q35 135 138.5 216t265.5 81q121 0 198.5 -39t122.5 -102.5 t62.5 -145.5t17.5 -168v-561q0 -94 -25.5 -174t-78 -138.5t-129 -91t-181.5 -32.5q-160 0 -259 76.5t-134 216.5z" />
<glyph unicode="&#x42e;" horiz-adv-x="1347" d="M117 0v1425h170v-626h174v231q0 72 20.5 144.5t67.5 131t123 94.5t186 36q109 0 184.5 -34t122.5 -91.5t68.5 -130t21.5 -150.5v-635q0 -98 -28.5 -174t-80.5 -128t-126 -78.5t-162 -26.5q-111 0 -186.5 33.5t-122.5 92t-67.5 137.5t-20.5 169v229h-174v-649h-170z M629 1028l2 -606q0 -125 52 -201t179 -76q92 0 155.5 57.5t63.5 176.5v649q0 33 -8 75t-32.5 80t-68.5 64.5t-114 26.5q-68 0 -112 -23.5t-69.5 -60.5t-36.5 -80t-11 -82z" />
<glyph unicode="&#x42f;" horiz-adv-x="1054" d="M57 0l103 428q23 92 58.5 154.5t107.5 97.5q-63 16 -104.5 51t-66 79t-33.5 95t-9 103q0 94 25.5 170.5t74.5 132t121 85t166 29.5h426v-1425h-170v633h-170q-35 0 -72 -9.5t-71.5 -34t-63.5 -69.5t-47 -117l-94 -403h-181zM285 1008q0 -117 66.5 -171.5t176.5 -54.5h228 v488h-230q-125 0 -183 -71.5t-58 -190.5z" />
<glyph unicode="&#x430;" horiz-adv-x="872" d="M74 285q0 135 84 224t268 89h186v125q0 70 -46 108.5t-136 38.5q-59 0 -111.5 -21.5t-74.5 -74.5q-33 18 -65 37.5t-64 40.5q41 84 126 129t189 45q72 0 135.5 -15.5t111.5 -50t75.5 -93t27.5 -146.5v-721h-168v74l-8 4q-35 -45 -97.5 -67.5t-141.5 -22.5 q-74 0 -129.5 23.5t-91 64.5t-53 95t-17.5 114zM231 295q0 -68 45.5 -110t137.5 -42q86 0 142 39t56 135v140h-198q-80 0 -131.5 -38t-51.5 -124z" />
<glyph unicode="&#x431;" horiz-adv-x="897" d="M86 549q0 33 2 75t3 79.5t3 65.5t4 36q8 123 30 213t58.5 156.5t92 112.5t131.5 79q68 31 138 56.5t175 66.5l55 -121q-51 -25 -88 -41t-67.5 -28.5t-59 -23.5t-63.5 -28q-125 -59 -181.5 -144t-64.5 -220q4 0 4 -2q47 57 109.5 81.5t115.5 24.5q106 0 172 -41t105 -115 q33 -61 43 -160.5t10 -203.5q0 -80 -6 -137.5t-27 -116.5q-20 -66 -57 -109t-82 -69.5t-97 -37.5t-104 -11q-117 0 -191.5 49t-111.5 125q-27 55 -40 148t-11 241zM252 463q0 -68 3 -119t19 -92q23 -55 65 -85t114 -30q63 0 110 35t70 102q10 29 13 83.5t3 125.5q0 31 -1 65 t-4 66.5t-7 58t-8 42.5q-23 57 -61.5 90t-112.5 33q-119 0 -166 -99q-23 -45 -30 -115.5t-7 -160.5z" />
<glyph unicode="&#x432;" horiz-adv-x="872" d="M106 0v1014h349q170 0 251.5 -77t81.5 -202q0 -66 -27.5 -118t-92.5 -87h2q76 -29 106.5 -90t30.5 -137q0 -84 -27.5 -141.5t-77 -93t-115 -52t-141.5 -16.5h-340zM274 154h172q92 0 143.5 38.5t51.5 116.5q0 66 -41 108t-141 42h-185v-305zM274 592h166q92 0 137.5 27.5 t45.5 113.5q0 63 -43 99t-138 36h-168v-276z" />
<glyph unicode="&#x433;" horiz-adv-x="761" d="M106 0v1014h631v-146h-465v-868h-166z" />
<glyph unicode="&#x434;" horiz-adv-x="1009" d="M35 127l80 18q33 25 52 54.5t30.5 77t17.5 120t16 183.5l19 434h629v-869h90v-409h-158v264h-618v-264h-158v391zM315 145h398v723h-312l-14 -293q-6 -78 -10 -142t-11.5 -116.5t-18.5 -94.5t-32 -77z" />
<glyph unicode="&#x435;" horiz-adv-x="868" d="M76 506q0 96 15 189t55 167t110 119t178 45q172 0 263 -109.5t91 -302.5v-157h-546q0 -68 8 -126.5t30.5 -101.5t63.5 -67.5t107 -24.5q55 0 101 35t75 82l135 -72q-41 -90 -122 -142t-183 -52t-174 28.5t-118 91t-67.5 161t-21.5 237.5zM246 590h379q0 139 -48.5 209.5 t-140.5 70.5q-106 0 -146 -75.5t-44 -204.5z" />
<glyph unicode="&#x436;" horiz-adv-x="1308" d="M27 0q23 82 47 164t47 164q23 76 54.5 130t100.5 70q-55 16 -88.5 66.5t-56.5 124.5q-20 74 -41.5 146.5t-44.5 146.5h162l84 -291q14 -51 35.5 -80t48 -44t57.5 -19.5t64 -4.5h73v439h166v-439h53q33 0 67 2.5t64.5 15.5t55 44t41.5 86l84 291h162l-86 -293 q-23 -74 -57 -124t-89 -67q70 -16 101.5 -70.5t54.5 -129.5l94 -328h-166q-18 70 -36.5 139.5t-39.5 139.5q-16 57 -36.5 88.5t-47 47t-60.5 19.5t-75 4h-84v-438h-166v438h-80q-41 0 -74.5 -5t-61 -20.5t-49 -47t-38.5 -86.5l-73 -279h-166z" />
<glyph unicode="&#x437;" horiz-adv-x="815" d="M29 180l135 72q20 -57 75.5 -85t131.5 -28q82 0 136 40t54 124q0 72 -43 113t-115 41h-122v139h125q76 0 110.5 37t34.5 102q0 61 -42 98t-120 37q-72 0 -126 -25.5t-79 -84.5l-129 76q37 92 126 140t202 48q174 0 254 -76t80 -200q0 -61 -27.5 -125t-97.5 -93 q84 -41 110.5 -97t26.5 -134q0 -147 -96 -228t-262 -81q-123 0 -213 44t-129 146z" />
<glyph unicode="&#x438;" horiz-adv-x="1017" d="M123 0v1012h170v-723h4l152 252l286 471h160v-1012h-172v705h-8l-158 -259l-276 -446h-158z" />
<glyph unicode="&#x439;" horiz-adv-x="1017" d="M123 0v1012h170v-723h4l152 252l286 471h160v-1012h-172v705h-8l-158 -259l-276 -446h-158zM229 1432h142q2 -20 12 -43t28.5 -42.5t44 -31.5t56.5 -12q35 0 61.5 12t45 31.5t27.5 42t9 43.5h138q-4 -41 -19.5 -86.5t-47.5 -83t-84 -63t-130 -25.5q-80 0 -133 25.5 t-86 63t-48.5 83t-15.5 86.5z" />
<glyph unicode="&#x43a;" horiz-adv-x="854" d="M88 0v1014h166v-441h113q29 0 57.5 4.5t54 19.5t46 45t34.5 79l84 293h162l-86 -295q-23 -74 -56.5 -124t-89.5 -67q70 -16 102 -69t54 -129l94 -330h-166l-75 281q-29 98 -77 127.5t-116 29.5h-135v-438h-166z" />
<glyph unicode="&#x43b;" horiz-adv-x="919" d="M10 100q53 27 88 53.5t55.5 72.5t28.5 123t8 206v459h623v-1014h-168v868h-299v-397q0 -127 -17.5 -213t-51 -143.5t-86.5 -91.5t-123 -54q-14 33 -28.5 65t-29.5 66z" />
<glyph unicode="&#x43c;" horiz-adv-x="1134" d="M109 0v1014h161l166 -322q35 -70 68 -136.5t69 -133.5h2l134 270l165 322h160v-1014h-168v666h-2q-20 -43 -39.5 -86t-42.5 -84q-41 -78 -79.5 -153t-77.5 -153h-107l-135 261l-104 206h-3v-657h-167z" />
<glyph unicode="&#x43d;" horiz-adv-x="915" d="M106 0v1014h168v-430h367v430h168v-1014h-168v446h-367v-446h-168z" />
<glyph unicode="&#x43e;" horiz-adv-x="897" d="M82 500q0 96 9 184t32 143q41 92 125 145.5t207 53.5q121 0 190.5 -48t110.5 -120q14 -25 24.5 -64.5t16.5 -88t9 -100.5t3 -99q0 -29 -2 -70t-7 -86t-11.5 -86t-14.5 -65q-18 -59 -54 -100.5t-82 -66t-98.5 -35.5t-107.5 -11q-117 0 -191.5 49t-111.5 127 q-27 55 -37 146t-10 192zM246 481q0 -68 3 -127t19 -100q23 -55 66 -86t108 -31q63 0 111.5 31t71.5 98q10 29 14 97.5t4 152.5q0 72 -4 136.5t-16 101.5q-23 61 -68 92t-104 31t-106.5 -29t-70.5 -86q-14 -39 -21 -111.5t-7 -169.5z" />
<glyph unicode="&#x43f;" horiz-adv-x="937" d="M119 0v1014h702v-1014h-166v866h-370v-866h-166z" />
<glyph unicode="&#x440;" horiz-adv-x="884" d="M90 -410v1424h166v-94q2 0 2 -1t2 -1q45 57 102.5 82.5t129.5 25.5q100 0 159.5 -42t92 -112.5t43 -165t10.5 -196.5q0 -96 -11.5 -189.5t-46 -167t-98 -118.5t-166.5 -45q-127 0 -215 100h-4v-500h-166zM254 481q0 -55 5 -112.5t23.5 -105.5t55.5 -78.5t100 -30.5 t100 28.5t57.5 76.5t27 111.5t6.5 135.5q0 74 -6.5 139.5t-25.5 114.5t-56 78.5t-101 29.5q-74 0 -112.5 -37.5t-55 -95t-17.5 -126t-1 -128.5z" />
<glyph unicode="&#x441;" horiz-adv-x="788" d="M63 528q0 227 92.5 362.5t288.5 135.5q111 0 190 -50t120 -136l-136 -84q-23 53 -67.5 82.5t-104.5 29.5q-68 0 -110.5 -26.5t-66 -72.5t-32 -108.5t-8.5 -136.5t8.5 -142.5t32 -121.5t65.5 -85t109 -32q61 0 105 32t67 73q35 -20 70 -37.5t70 -38.5q-41 -86 -121 -135 t-191 -49q-115 0 -188.5 39t-116.5 109.5t-59.5 171t-16.5 220.5z" />
<glyph unicode="&#x442;" horiz-adv-x="716" d="M10 868v144h697v-144h-269v-868h-164v868h-264z" />
<glyph unicode="&#x443;" horiz-adv-x="786" d="M2 1014h176l125 -406l96 -342h7l90 342l118 406h172l-364 -1217q-33 -109 -100.5 -160t-163.5 -51h-54v144h50q96 0 131 145l43 150z" />
<glyph unicode="&#x444;" horiz-adv-x="1087" d="M76 500q0 94 7 175t36 144q41 96 130 150.5t212 58.5v418h164l2 -418q123 -4 207 -53t124 -137q31 -66 40.5 -152t9.5 -188q0 -111 -12.5 -201t-55.5 -156q-47 -74 -128 -112.5t-185 -46.5l-2 -383h-164v383q-111 6 -194 45t-126 108q-41 66 -53 159t-12 206zM240 481 q0 -70 5 -133t21 -100q25 -51 76 -80t117 -33l2 735q-66 -4 -119 -32.5t-76 -83.5q-16 -41 -21 -114t-5 -159zM625 135q68 4 122 36t76 97q16 39 18.5 94.5t2.5 118.5q0 86 -3 157t-20 112q-23 59 -76 87.5t-120 32.5v-735z" />
<glyph unicode="&#x445;" horiz-adv-x="806" d="M18 0l297 520l-282 494h186l187 -371l184 371h186l-282 -496l297 -518h-187l-198 389l-201 -389h-187z" />
<glyph unicode="&#x446;" horiz-adv-x="954" d="M109 0v1014h167v-860h367v860h166v-860h111v-418h-158v264h-653z" />
<glyph unicode="&#x447;" horiz-adv-x="858" d="M61 711v303h166v-326q0 -94 41 -132t119 -38q39 0 100.5 15.5t112.5 50.5v430h164v-1014h-166v436h-2q-59 -35 -124.5 -53t-125.5 -18q-143 0 -214 80.5t-71 265.5z" />
<glyph unicode="&#x448;" horiz-adv-x="1366" d="M111 0v1014h165v-858h324v858h164v-858h328v858h163v-1014h-1144z" />
<glyph unicode="&#x449;" horiz-adv-x="1417" d="M111 0v1014h163v-860h324v860h166v-860h326v860h163v-860h111v-402h-156v248h-1097z" />
<glyph unicode="&#x44a;" horiz-adv-x="1056" d="M25 868v146h464v-389h187q96 0 162.5 -25t107.5 -66.5t58.5 -97t17.5 -119.5q0 -145 -79 -231t-263 -86h-361v868h-294zM489 154h185q102 0 141 48t39 113q0 31 -8 58.5t-29.5 49t-56.5 35t-88 13.5l-183 2v-319z" />
<glyph unicode="&#x44b;" horiz-adv-x="1187" d="M102 0v1014h170v-389h187q96 0 161.5 -25t106.5 -66.5t58.5 -97t17.5 -119.5q0 -145 -78 -231t-262 -86h-361zM270 154h185q102 0 141 48t39 113q0 31 -8.5 58.5t-28.5 49t-56 35t-89 13.5l-183 2v-319zM905 0v1014h170v-1014h-170z" />
<glyph unicode="&#x44c;" horiz-adv-x="833" d="M106 0v1014h170v-389h187q96 0 161.5 -25t106.5 -66.5t58.5 -97t17.5 -119.5q0 -145 -78 -231t-262 -86h-361zM274 154h185q102 0 141 48t39 113q0 31 -8 58.5t-28.5 49t-56.5 35t-89 13.5l-183 2v-319z" />
<glyph unicode="&#x44d;" horiz-adv-x="788" d="M16 172l140 76q23 -41 69.5 -73t108.5 -32q59 0 98 25t63.5 68t36 100t15.5 121h-361v133h361q-4 61 -14.5 112.5t-35 88t-64.5 57t-101 20.5q-53 0 -102.5 -29.5t-71.5 -82.5l-135 84q41 86 127 136t190 50q98 0 170 -37t118 -103.5t67.5 -158.5t19.5 -205 q-2 -115 -20.5 -212t-62.5 -168.5t-119 -112.5t-187 -41q-111 0 -190 49t-120 135z" />
<glyph unicode="&#x44e;" horiz-adv-x="1200" d="M125 0v1012h172v-426h121q0 72 6 137q14 133 107.5 217t238.5 84q139 0 228 -73.5t106 -209.5q4 -37 6 -76.5t2 -78.5l-2 -240q-6 -174 -97 -266t-247 -92q-147 0 -236.5 77.5t-105.5 213.5q-6 70 -6 145v20h-121v-444h-172zM578 438q0 -37 2 -73.5t6 -73.5 q10 -66 58 -109t124 -43q86 0 132 57.5t46 145.5v301q0 45 -8 87t-27.5 74t-54.5 50t-88 18q-76 0 -124 -44t-58 -109q-4 -25 -6 -49.5t-2 -51.5v-180z" />
<glyph unicode="&#x44f;" horiz-adv-x="884" d="M53 0l74 295q14 55 42 102t77 68q-86 29 -123 95.5t-37 144.5q0 135 82 222t233 87h385v-1014h-165v422h-166q-61 -2 -103.5 -33t-64.5 -123l-64 -266h-170zM252 705q0 -72 45 -109t127 -37h197v307h-193q-82 0 -129 -41.5t-47 -119.5z" />
<glyph unicode="&#x451;" horiz-adv-x="868" d="M76 506q0 96 15 189t55 167t110 119t178 45q172 0 263 -109.5t91 -302.5v-157h-546q0 -68 8 -126.5t30.5 -101.5t63.5 -67.5t107 -24.5q55 0 101 35t75 82l135 -72q-41 -90 -122 -142t-183 -52t-174 28.5t-118 91t-67.5 161t-21.5 237.5zM190 1229v172h162v-172h-162z M246 590h379q0 139 -48.5 209.5t-140.5 70.5q-106 0 -146 -75.5t-44 -204.5zM532 1229v172h160v-172h-160z" />
<glyph unicode="&#x452;" horiz-adv-x="956" d="M12 1174v131h111v182h164v-182h385v-131h-385v-285h6q88 123 250 123q96 0 173 -48.5t105 -140.5q23 -53 30 -142t7 -185q0 -84 -11 -171t-38 -147q-37 -84 -111.5 -139t-208.5 -55q-14 0 -22 1t-25 3v145q10 -2 20.5 -2h20.5q63 0 103.5 26.5t64.5 73.5q23 43 31 107.5 t8 136.5q0 104 -6 179t-37 122q-23 35 -59.5 55.5t-95.5 20.5q-61 0 -100.5 -25.5t-63 -66.5t-32.5 -92.5t-9 -100.5v-567h-164v1174h-111z" />
<glyph unicode="&#x453;" horiz-adv-x="761" d="M106 0v1014h631v-146h-465v-868h-166zM322 1171l143 355l156 -51l-201 -342z" />
<glyph unicode="&#x454;" horiz-adv-x="788" d="M63 528q0 227 92.5 362.5t288.5 135.5q111 0 190 -50t120 -136l-136 -84q-23 53 -67.5 82.5t-104.5 29.5q-61 0 -101 -20.5t-64.5 -57t-36 -88t-13.5 -112.5h361v-133h-361q2 -63 14.5 -120.5t37 -100.5t63.5 -68t98 -25q61 0 105 32t67 73q35 -20 70 -37.5t70 -38.5 q-41 -86 -121 -135t-191 -49q-115 0 -188.5 39t-116.5 109.5t-59.5 171t-16.5 220.5z" />
<glyph unicode="&#x455;" horiz-adv-x="829" d="M55 201l135 78q33 -66 87.5 -103t136.5 -37q86 0 134 36t48 116q0 39 -14.5 63.5t-40 41t-60.5 27.5t-75 23q-74 18 -133.5 42t-102.5 58t-65.5 80t-22.5 111q0 135 88 212t242 77q137 0 213.5 -51t111.5 -144l-129 -79q-59 123 -198 122q-92 0 -128 -41.5t-36 -95.5 q0 -35 18.5 -57.5t50 -37.5t73.5 -27.5t87 -24.5q72 -16 125 -40t89 -59.5t53.5 -85t17.5 -118.5q0 -137 -92.5 -219t-257.5 -82q-131 0 -219.5 55t-135.5 160z" />
<glyph unicode="&#x456;" horiz-adv-x="403" d="M119 0v1014h166v-1014h-166zM119 1260v165h166v-165h-166z" />
<glyph unicode="&#x457;" horiz-adv-x="403" d="M-49 1214v172h162v-172h-162zM119 0v1014h166v-1014h-166zM293 1214v172h160v-172h-160z" />
<glyph unicode="&#x458;" horiz-adv-x="430" d="M-25 -266q4 0 20.5 -1t18.5 1q63 2 91 42t28 111v1127h166v-1164q0 -57 -16.5 -106t-50 -86t-84 -57.5t-117.5 -20.5h-56v154zM133 1260v165h166v-165h-166z" />
<glyph unicode="&#x459;" horiz-adv-x="1318" d="M23 100q49 25 83.5 50.5t56 65.5t32 102.5t10.5 162.5v533h545v-389h186q96 0 161.5 -25t106.5 -66.5t58.5 -97t17.5 -119.5q0 -143 -78 -230t-262 -87h-360v868h-220v-395q0 -127 -17 -213t-52 -143.5t-88 -91t-123 -56.5zM748 156h184q102 0 141 45.5t39 113.5 q0 31 -8 58.5t-28.5 49t-56.5 35t-89 13.5h-182v-315z" />
<glyph unicode="&#x45a;" horiz-adv-x="1353" d="M113 0v1014h168v-398h329v398h170v-398h187q96 0 161.5 -23.5t106.5 -64.5t58.5 -95t17.5 -116q0 -145 -78 -231t-262 -86h-361v463h-329v-463h-168zM778 154h185q102 0 141 48t39 113q0 29 -8.5 55.5t-29 46t-56 32t-88.5 12.5h-183v-307z" />
<glyph unicode="&#x45b;" horiz-adv-x="897" d="M0 1194v127h96v166h166v-166h373v-127h-373v-295h6q43 59 106.5 92t137.5 33q61 0 113.5 -20.5t90.5 -60.5t60.5 -96t22.5 -130v-717h-166v662q0 92 -46 145t-138 53q-86 0 -137.5 -53t-51.5 -150v-657h-164v1194h-96z" />
<glyph unicode="&#x45c;" horiz-adv-x="854" d="M88 0v1014h166v-441h113q29 0 57.5 4.5t54 19.5t46 45t34.5 79l84 293h162l-86 -295q-23 -74 -56.5 -124t-89.5 -67q70 -16 102 -69t54 -129l94 -330h-166l-75 281q-29 98 -77 127.5t-116 29.5h-135v-438h-166zM336 1171l143 355l156 -51l-201 -342z" />
<glyph unicode="&#x45e;" horiz-adv-x="786" d="M2 1014h176l125 -406l96 -342h7l90 342l118 406h172l-364 -1217q-33 -109 -100.5 -160t-163.5 -51h-54v144h50q96 0 131 145l43 150zM119 1432h141q2 -20 12.5 -43t28.5 -42.5t44 -31.5t56 -12q35 0 61.5 12t45 31.5t28 42t9.5 43.5h137q-4 -41 -19.5 -86.5t-47 -83 t-84 -63t-130.5 -25.5q-80 0 -133 25.5t-85.5 63t-48 83t-15.5 86.5z" />
<glyph unicode="&#x45f;" horiz-adv-x="917" d="M109 0v1014h167v-858h369v858h164v-1014h-264v-276h-172v276h-264z" />
<glyph unicode="&#x490;" horiz-adv-x="903" d="M133 0v1425h582l-2 240h157l2 -399h-569v-1266h-170z" />
<glyph unicode="&#x491;" horiz-adv-x="761" d="M106 0v1014h480v219h151v-365h-463v-868h-168z" />
<glyph unicode="&#x4d9;" horiz-adv-x="858" d="M68 401v158h546q0 68 -8 126t-30.5 101t-63.5 68t-106 25q-55 0 -101.5 -35t-75.5 -82l-135 72q41 90 128 142t190 52q193 0 280.5 -120t87.5 -398q0 -96 -15 -189.5t-55 -167t-110 -118.5t-178 -45q-172 0 -263 109.5t-91 301.5zM231 426q0 -139 48.5 -210t140.5 -71 q106 0 146 76t44 205h-379z" />
<glyph unicode="&#x2000;" horiz-adv-x="905" />
<glyph unicode="&#x2001;" horiz-adv-x="1810" />
<glyph unicode="&#x2002;" horiz-adv-x="905" />
<glyph unicode="&#x2003;" horiz-adv-x="1810" />
<glyph unicode="&#x2004;" horiz-adv-x="603" />
<glyph unicode="&#x2005;" horiz-adv-x="452" />
<glyph unicode="&#x2006;" horiz-adv-x="301" />
<glyph unicode="&#x2007;" horiz-adv-x="301" />
<glyph unicode="&#x2008;" horiz-adv-x="226" />
<glyph unicode="&#x2009;" horiz-adv-x="362" />
<glyph unicode="&#x200a;" horiz-adv-x="100" />
<glyph unicode="&#x2010;" horiz-adv-x="755" d="M104 455v145h560v-145h-560z" />
<glyph unicode="&#x2011;" horiz-adv-x="755" d="M104 455v145h560v-145h-560z" />
<glyph unicode="&#x2012;" horiz-adv-x="755" d="M104 455v145h560v-145h-560z" />
<glyph unicode="&#x2013;" horiz-adv-x="1024" d="M41 471v156h942v-156h-942z" />
<glyph unicode="&#x2014;" horiz-adv-x="2048" d="M41 471v156h1966v-156h-1966z" />
<glyph unicode="&#x2018;" horiz-adv-x="456" d="M127 1030v209l104 234h99l-58 -230h50v-213h-195z" />
<glyph unicode="&#x2019;" horiz-adv-x="456" d="M127 1030l57 232h-51v213h197v-209l-107 -236h-96z" />
<glyph unicode="&#x201a;" horiz-adv-x="456" d="M117 -238l57 230h-51v213h194v-209l-104 -234h-96z" />
<glyph unicode="&#x201c;" horiz-adv-x="614" d="M76 1030v209l104 234h96l-57 -230h51v-213h-194zM342 1030v209l104 234h99l-58 -230h50v-213h-195z" />
<glyph unicode="&#x201d;" horiz-adv-x="614" d="M86 1030l57 232h-49v213h195v-209l-105 -236h-98zM354 1030l58 232h-52v213h195v-209l-104 -236h-97z" />
<glyph unicode="&#x201e;" horiz-adv-x="759" d="M117 -238l57 230h-51v213h194v-209l-104 -234h-96zM434 -238l58 230h-52v213h195v-209l-105 -234h-96z" />
<glyph unicode="&#x2026;" horiz-adv-x="1449" d="M139 0v207h195v-207h-195zM621 0v207h194v-207h-194zM1112 0v207h195v-207h-195z" />
<glyph unicode="&#x202f;" horiz-adv-x="362" />
<glyph unicode="&#x2039;" horiz-adv-x="591" d="M90 475l240 381h159l-235 -381l235 -381h-159z" />
<glyph unicode="&#x203a;" horiz-adv-x="571" d="M92 94l234 381l-234 381h160l240 -381l-240 -381h-160z" />
<glyph unicode="&#x205f;" horiz-adv-x="452" />
<glyph unicode="&#x20ac;" d="M29 547v106h80v121h-80v105h80v141q0 90 26.5 167t76.5 132t124 86t166 31q139 0 241.5 -75t137.5 -210l-164 -47q-23 72 -74 123t-141 51q-59 0 -101.5 -20.5t-70 -56.5t-39.5 -82t-12 -95v-145h362v-105h-362v-121h362v-106h-362v-158q0 -49 14 -93t41.5 -78 t69.5 -54.5t98 -20.5q92 0 144 49.5t81 129.5l154 -48q-35 -135 -136.5 -210.5t-242.5 -75.5q-92 0 -165 29.5t-123 85t-77.5 133t-27.5 172.5v139h-80z" />
<glyph unicode="&#x2122;" horiz-adv-x="1550" d="M76 1307v118h555v-118h-213v-699h-129v699h-213zM733 606v817h127l227 -508l224 508h125v-817h-129l-2 492l-168 -359h-109l-166 361h-2v-494h-127z" />
<glyph unicode="&#x25fc;" horiz-adv-x="1013" d="M0 0v1014h1014v-1014h-1014z" />
</font>
</defs>
</svg>
